<svg xmlns="http://www.w3.org/2000/svg" viewBox="0 0 96 96" width="96" height="96" fill="none">
<defs>
  <linearGradient id="t25" x1="8" y1="4" x2="88" y2="92" gradientUnits="userSpaceOnUse">
    <stop stop-color="#2A2160"/><stop offset="1" stop-color="#0B0C17"/>
  </linearGradient>
  <linearGradient id="b25" x1="6" y1="4" x2="90" y2="92" gradientUnits="userSpaceOnUse">
    <stop stop-color="#937AFF" stop-opacity=".85"/><stop offset=".55" stop-color="#937AFF" stop-opacity=".12"/><stop offset="1" stop-color="#937AFF" stop-opacity=".3"/>
  </linearGradient>
  <radialGradient id="g25" cx="30" cy="24" r="52" gradientUnits="userSpaceOnUse">
    <stop stop-color="#937AFF" stop-opacity=".45"/><stop offset="1" stop-color="#937AFF" stop-opacity="0"/>
  </radialGradient>
</defs>
<rect x="1.5" y="1.5" width="93" height="93" rx="28" fill="url(#t25)"/>
<rect x="1.5" y="1.5" width="93" height="93" rx="28" fill="url(#g25)"/>
<rect x="1.5" y="1.5" width="93" height="93" rx="28" stroke="url(#b25)" stroke-width="1.5"/>
<path d="M22 3.4h52" stroke="#fff" stroke-opacity=".22" stroke-width="1.2" stroke-linecap="round"/>
<g transform="translate(26 26) scale(1.8333)"><g fill="none" stroke="#E9E4FF" stroke-width="1.6" stroke-linecap="round" stroke-linejoin="round"><path d="M4 14v-2a8 8 0 0 1 16 0v2"/><path d="M4 14h2.5v4H5a1 1 0 0 1-1-1zM20 14h-2.5v4H19a1 1 0 0 0 1-1z"/></g><g fill="none" stroke="#937AFF" stroke-width="1.6" stroke-linecap="round" stroke-linejoin="round"><path d="M15.5 18.5c-.5 1.4-1.8 2-4 2"/></g></g>
</svg>
